<?xml version="1.0" standalone="no"?>
<!DOCTYPE svg PUBLIC "-//W3C//DTD SVG 20010904//EN"
 "http://www.w3.org/TR/2001/REC-SVG-20010904/DTD/svg10.dtd">
<svg version="1.0" xmlns="http://www.w3.org/2000/svg"
 width="200.000000pt" height="200.000000pt" viewBox="0 0 200.000000 200.000000"
 preserveAspectRatio="xMidYMid meet">
<metadata>
Created by potrace 1.14, written by Peter Selinger 2001-2017
</metadata>
<g transform="translate(0.000000,200.000000) scale(0.100000,-0.100000)"
fill="#000000" stroke="none">
<path d="M900 1977 c-3 -3 -25 -7 -50 -10 -25 -3 -56 -8 -70 -11 -14 -3 -35
-8 -47 -10 -12 -3 -30 -9 -40 -14 -10 -6 -22 -11 -28 -12 -41 -9 -145 -58
-193 -91 -24 -16 -45 -29 -47 -29 -11 0 -142 -124 -185 -175 -36 -43 -100
-141 -100 -154 0 -6 -4 -11 -10 -11 -5 0 -10 -3 -9 -7 2 -16 -14 -53 -23 -53
-5 0 -6 -5 -2 -11 3 -6 2 -14 -4 -18 -7 -4 -14 -18 -16 -31 -2 -14 -5 -26 -7
-27 -1 -2 -3 -7 -4 -13 -1 -5 -4 -12 -5 -15 -1 -3 -3 -8 -4 -12 -16 -64 -19
-81 -22 -98 -1 -11 -5 -36 -9 -56 -5 -30 -3 -37 12 -40 28 -7 622 -3 629 3 3
4 7 14 9 25 2 10 4 19 5 21 2 1 3 5 4 10 4 15 39 77 52 90 7 7 17 19 21 26 11
18 113 90 113 79 0 -4 4 -2 8 5 5 7 23 14 40 15 18 1 32 5 32 8 0 10 142 3
177 -9 18 -6 47 -19 65 -28 40 -22 138 -121 138 -139 0 -7 3 -15 8 -17 4 -1
14 -23 23 -48 l16 -44 279 -1 c153 0 289 1 301 3 16 3 20 10 17 26 -2 11 -6
37 -9 56 -2 19 -9 51 -15 70 -6 19 -13 46 -16 60 -5 27 -102 232 -113 240 -4
3 -21 25 -38 50 -45 67 -137 157 -213 210 -19 13 -37 27 -40 30 -12 14 -168
89 -174 83 -3 -3 -6 -2 -6 4 0 9 -84 36 -146 48 -10 2 -19 4 -19 5 0 9 -276
26 -285 17z"/>
<path d="M928 1169 c-130 -67 -157 -222 -55 -324 74 -74 205 -79 279 -12 35
32 74 87 62 87 -4 0 -1 7 6 14 30 37 -9 163 -63 206 -63 50 -163 63 -229 29z"/>
<path d="M33 893 c-9 -3 -9 -12 -2 -30 5 -14 8 -28 5 -30 -2 -3 2 -22 9 -44 8
-21 12 -39 10 -39 -16 0 96 -247 119 -262 6 -5 7 -8 1 -8 -7 0 -7 -3 0 -8 6
-4 23 -26 38 -48 48 -71 183 -201 248 -239 10 -5 39 -23 66 -38 85 -50 230
-101 328 -115 28 -4 100 -7 160 -7 101 1 136 4 205 19 14 3 34 8 46 10 11 2
36 11 56 19 20 9 39 13 42 9 3 -3 6 0 6 7 0 7 6 11 14 8 8 -3 16 -3 18 1 2 4
25 18 52 32 136 68 258 174 346 300 13 19 27 37 30 40 3 3 12 19 20 35 8 17
19 33 25 37 5 4 6 8 1 8 -5 0 -4 6 1 13 28 34 80 198 88 272 1 17 4 30 5 30 1
0 3 7 5 16 3 15 -24 17 -289 17 -160 0 -298 -2 -307 -4 -10 -3 -20 -20 -23
-39 -4 -19 -11 -35 -17 -35 -6 0 -7 -4 -4 -10 3 -5 1 -10 -4 -10 -6 0 -11 -7
-11 -15 0 -7 -8 -19 -18 -24 -9 -6 -14 -11 -10 -11 10 0 -33 -42 -67 -65 -44
-29 -76 -45 -99 -50 -12 -2 -21 -4 -21 -5 0 -10 -110 -13 -154 -5 -49 10 -131
50 -167 82 -39 36 -87 108 -104 154 l-13 36 -311 0 c-171 0 -316 -2 -323 -4z"/>
</g>
</svg>
